<svg width="121" height="20" viewBox="0 0 121 20" fill="none" xmlns="http://www.w3.org/2000/svg">
<g id="by RetailPay">
<path d="M7.07673 16.3302C9.89709 16.3302 11.9236 14.1992 11.9236 10.6894V10.5223C11.9236 6.99161 9.81353 4.96512 7.07673 4.96512C5.46807 4.96512 4.11012 5.90524 3.50426 6.94982V0.13916H0.976379V16.1212H3.50426V14.3663C4.08923 15.4736 5.34272 16.3302 7.07673 16.3302ZM6.44998 14.3246C4.61152 14.3246 3.4207 13.1755 3.4207 10.7312V10.5641C3.4207 8.14064 4.67419 6.94982 6.42909 6.94982C8.07952 6.94982 9.33302 8.14064 9.33302 10.5641V10.7312C9.33302 13.0711 8.30933 14.3246 6.44998 14.3246Z" fill="white"/>
<path d="M15.1025 19.8608H17.5886L23.5427 5.19493H21.0775L18.4034 12.2354L15.4995 5.19493H12.7627L17.0872 15.014L15.1025 19.8608Z" fill="white"/>
<path d="M30.6253 16.1212H33.4039V10.0836H35.1797L39.0864 16.1212H42.0948L37.8956 9.66573C39.755 9.18522 41.2174 7.9944 41.2174 5.65454V5.57098C41.2174 2.5208 38.9193 1.18374 35.6393 1.18374H30.6253V16.1212ZM33.4039 8.09886V3.33558H35.6393C37.4151 3.33558 38.4806 3.92054 38.4806 5.63365V5.71722C38.4806 7.30498 37.4987 8.09886 35.6393 8.09886H33.4039Z" fill="white"/>
<path d="M48.5031 16.3302C51.3026 16.3302 53.162 15.0767 53.5171 12.7786H51.0728C50.8848 13.8441 50.0909 14.4499 48.5658 14.4499C46.6856 14.4499 45.641 13.28 45.5574 11.2117H53.5589V10.4805C53.5589 6.57377 51.1146 4.96512 48.3987 4.96512C45.2858 4.96512 42.9669 7.22141 42.9669 10.6059V10.773C42.9669 14.2201 45.2858 16.3302 48.5031 16.3302ZM45.5992 9.51949C45.8499 7.82727 46.8736 6.80358 48.3987 6.80358C49.9656 6.80358 50.9266 7.63925 51.0519 9.51949H45.5992Z" fill="white"/>
<path d="M59.5355 16.3093C60.3085 16.3093 60.8517 16.1839 61.2486 16.0377V14.0321C60.8935 14.1783 60.5174 14.241 60.016 14.241C59.2222 14.241 58.7626 13.8023 58.7626 12.8413V7.09606H61.1651V5.19493H58.7626V2.79239H56.2347V5.19493H54.7723V7.09606H56.2347V13.0711C56.2347 15.1393 57.3628 16.3093 59.5355 16.3093Z" fill="white"/>
<path d="M66.4929 16.3302C68.1643 16.3302 69.1253 15.7243 69.8356 14.7842V16.1212H72.3217V8.95542C72.3217 5.96792 70.3997 4.96512 67.9554 4.96512C65.511 4.96512 63.4846 6.03059 63.2756 8.57937H65.7199C65.8453 7.493 66.4929 6.86626 67.8091 6.86626C69.2924 6.86626 69.7938 7.59746 69.7938 9.05987V9.62395H68.4359C65.3021 9.62395 62.8369 10.5432 62.8369 13.092C62.8369 15.3691 64.4873 16.3302 66.4929 16.3302ZM67.0988 14.5126C65.8453 14.5126 65.3439 13.9067 65.3439 12.9875C65.3439 11.6504 66.5765 11.2117 68.4985 11.2117H69.7938V12.2981C69.7938 13.6978 68.6448 14.5126 67.0988 14.5126Z" fill="white"/>
<path d="M75.2818 16.1212H77.8097V5.19493H75.2818V16.1212ZM76.5144 3.39825C77.35 3.39825 78.0186 2.7715 78.0186 1.95673C78.0186 1.12107 77.35 0.494318 76.5144 0.494318C75.6787 0.494318 75.0102 1.12107 75.0102 1.95673C75.0102 2.7715 75.6787 3.39825 76.5144 3.39825Z" fill="white"/>
<path d="M80.9535 16.1212H83.4814V0.13916H80.9535V16.1212Z" fill="white"/>
<path d="M86.7715 16.1212H89.5501V10.4387H91.6393C94.8357 10.4387 97.1129 9.03898 97.1129 5.88435V5.80078C97.1129 2.66704 94.9192 1.18374 91.5766 1.18374H86.7715V16.1212ZM89.5501 8.43313V3.33558H91.5766C93.3524 3.33558 94.3969 4.025 94.3969 5.80078V5.88435C94.3969 7.53479 93.415 8.43313 91.5766 8.43313H89.5501Z" fill="white"/>
<path d="M101.952 16.3302C103.623 16.3302 104.584 15.7243 105.294 14.7842V16.1212H107.78V8.95542C107.78 5.96792 105.858 4.96512 103.414 4.96512C100.97 4.96512 98.9431 6.03059 98.7342 8.57937H101.179C101.304 7.493 101.952 6.86626 103.268 6.86626C104.751 6.86626 105.252 7.59746 105.252 9.05987V9.62395H103.894C100.761 9.62395 98.2955 10.5432 98.2955 13.092C98.2955 15.3691 99.9459 16.3302 101.952 16.3302ZM102.557 14.5126C101.304 14.5126 100.802 13.9067 100.802 12.9875C100.802 11.6504 102.035 11.2117 103.957 11.2117H105.252V12.2981C105.252 13.6978 104.103 14.5126 102.557 14.5126Z" fill="white"/>
<path d="M111.583 19.8608H114.069L120.024 5.19493H117.558L114.884 12.2354L111.98 5.19493H109.244L113.568 15.014L111.583 19.8608Z" fill="white"/>
</g>
</svg>
