<svg width="166" height="72" viewBox="0 0 166 72" fill="none" xmlns="http://www.w3.org/2000/svg">
<g id="XMLID_2_">
<g id="XMLID_4_">
<g id="Group 1082">
<path id="XMLID_15_" d="M105.357 34.0303C103.815 34.0303 102.572 34.7197 101.776 36.0002C100.981 37.2314 100.583 38.9058 100.583 41.0234C100.583 43.1903 100.981 44.914 101.776 46.0959C102.622 47.3764 103.865 48.0658 105.406 48.0658C106.948 48.0658 108.191 47.3764 108.987 46.0467C109.733 44.8155 110.131 43.1411 110.131 41.0234C110.131 38.9058 109.733 37.1821 108.937 36.0002C108.142 34.7197 106.898 34.0303 105.357 34.0303Z" fill="white"/>
<path id="XMLID_14_" d="M82.5318 34.0303C80.9902 34.0303 79.747 34.7197 78.9514 36.0002C78.1557 37.2314 77.7579 38.9058 77.7579 41.0234C77.7579 43.1903 78.1557 44.914 78.9514 46.0959C79.7967 47.3764 81.04 48.0658 82.5816 48.0658C84.1232 48.0658 85.3664 47.3764 86.162 46.0467C86.908 44.8155 87.3058 43.1411 87.3058 41.0234C87.3058 38.9058 86.908 37.1821 86.1123 36.0002C85.3166 34.7197 84.0734 34.0303 82.5318 34.0303Z" fill="white"/>
<path id="XMLID_5_" d="M129.625 0H37.3281C17.2874 0 0.976379 16.104 0.976379 36V72H129.625C149.665 72 165.976 55.896 165.976 36C165.976 16.104 149.715 0 129.625 0ZM53.1916 51.9562C53.0424 52.0055 52.7937 52.0055 52.5451 52.0547C51.9483 52.1532 51.3516 52.2025 50.7051 52.2025C50.1084 52.2025 49.5614 52.1532 49.1138 52.0547C48.716 52.0055 48.4176 51.8577 48.2187 51.6607C47.97 51.4637 47.8209 51.2175 47.6717 50.8728C47.5225 50.4788 47.4728 49.9863 47.4728 49.2969V37.7237C47.4728 36.4432 47.1246 35.5075 46.3787 34.8673C45.7322 34.2763 44.8371 33.9809 43.7928 33.9809C43.2458 33.9809 42.6988 34.1286 42.1518 34.3748C41.6048 34.6211 41.1572 34.9166 40.8588 35.212L40.461 35.606L40.6102 36.197C40.6102 36.2462 40.6102 36.2955 40.6102 36.3447V51.9562C40.4113 52.0055 40.2124 52.0055 39.9637 52.0547C39.367 52.1532 38.7702 52.2025 38.1735 52.2025C37.5767 52.2025 37.0297 52.1532 36.5822 52.0547C36.2341 52.0055 35.886 51.8577 35.687 51.6607C35.4384 51.4637 35.2892 51.2175 35.14 50.8728C34.9908 50.4788 34.9411 49.9863 34.9411 49.2969V37.7237C34.9411 36.0985 34.2946 35.2613 33.7476 34.8181C33.0514 34.2763 32.206 33.9809 31.2612 33.9809C30.6147 33.9809 30.018 34.0793 29.5207 34.3256C29.1228 34.5226 28.7747 34.7196 28.4764 34.8673L28.0288 35.1628V51.907C27.8796 51.9562 27.631 51.9562 27.3823 52.0055C26.7856 52.104 26.1889 52.1532 25.5424 52.1532C24.9456 52.1532 24.3986 52.104 23.9511 52.0055C23.603 51.9562 23.2549 51.8085 23.0559 51.6115C22.8073 51.4145 22.6581 51.1683 22.5089 50.8235C22.3597 50.4295 22.31 49.9371 22.31 49.2476V34.7196C22.31 34.0793 22.4095 33.5376 22.6581 33.1929C22.9565 32.7497 23.3543 32.3557 23.8516 31.9617C24.7467 31.2722 25.9402 30.6813 27.3326 30.238C28.725 29.7948 30.2169 29.5486 31.7585 29.5486C32.8525 29.5486 33.9963 29.7456 35.0903 30.041C36.1346 30.3858 37.0297 30.8783 37.8254 31.5185L38.3227 31.9617L38.8697 31.5677C39.6653 30.9767 40.6102 30.4843 41.6545 30.0903C42.6491 29.6963 43.8923 29.4993 45.3841 29.4993C46.4284 29.4993 47.4728 29.6471 48.4673 29.9425C49.4122 30.238 50.3073 30.6813 51.0532 31.3215C51.7494 31.9124 52.3462 32.7004 52.7937 33.7346C53.2413 34.7196 53.4402 36 53.4402 37.4774V51.9562H53.1916ZM71.442 51.316C71.1436 51.6115 70.7458 51.7592 70.2485 51.7592H55.9764C55.678 51.4637 55.4791 51.119 55.2802 50.725C55.0812 50.2326 54.9321 49.6908 54.9321 49.0999C54.9321 48.6074 55.0315 48.1149 55.2802 47.6224C55.5288 47.0807 55.8272 46.539 56.225 46.0465L63.8335 36.2955L65.0767 34.6703H55.5785C55.4791 34.4733 55.4294 34.2271 55.3299 33.9809C55.1807 33.5376 55.131 33.0451 55.131 32.5034C55.131 31.6662 55.2802 31.0752 55.5785 30.7305C55.8769 30.435 56.2747 30.2873 56.772 30.2873H70.2982C70.5966 30.5828 70.7955 30.9767 70.9945 31.3215C71.1934 31.814 71.3426 32.3557 71.3426 32.9467C71.3426 33.4391 71.2431 33.9316 70.9945 34.4241C70.7458 34.9658 70.4474 35.5075 70.0496 36L62.64 45.8003L61.4465 47.3762H71.442C71.5415 47.5732 71.5912 47.8194 71.6907 48.0657C71.8398 48.5089 71.8896 49.0014 71.8896 49.5431C71.8399 50.4295 71.6907 51.0205 71.442 51.316ZM92.4773 45.9973C91.98 47.4254 91.234 48.6074 90.3389 49.5923C89.3941 50.5773 88.3001 51.316 87.0071 51.8085C85.7142 52.301 84.2223 52.5964 82.5813 52.5964C80.9402 52.5964 79.4483 52.3502 78.1554 51.8085C76.8624 51.2668 75.7187 50.528 74.8236 49.5431C73.9285 48.5581 73.1825 47.3762 72.6852 45.948C72.1879 44.5198 71.8896 42.8947 71.8896 41.0725C71.8896 39.2996 72.1382 37.6744 72.6852 36.2462C73.1825 34.8181 73.9285 33.6361 74.8236 32.6512C75.7684 31.6662 76.8624 30.9275 78.1554 30.3858C79.4483 29.8441 80.9402 29.5978 82.5813 29.5978C84.2223 29.5978 85.6644 29.8933 87.0071 30.435C88.3001 30.9767 89.4438 31.7647 90.3389 32.7497C91.234 33.7346 91.98 34.9166 92.4773 36.3447C92.9746 37.7729 93.2729 39.3488 93.2729 41.1218C93.2232 42.8947 92.9746 44.5691 92.4773 45.9973ZM115.303 45.9973C114.805 47.4254 114.06 48.6074 113.164 49.5923C112.22 50.5773 111.126 51.316 109.833 51.8085C108.54 52.301 107.048 52.5964 105.407 52.5964C103.766 52.5964 102.274 52.3502 100.981 51.8085C99.688 51.2668 98.5442 50.528 97.6491 49.5431C96.7042 48.5581 96.008 47.3762 95.5107 45.948C95.0135 44.5198 94.7151 42.8947 94.7151 41.0725C94.7151 39.2996 94.9637 37.6744 95.5107 36.2462C96.008 34.8181 96.7539 33.6361 97.6491 32.6512C98.5939 31.6662 99.688 30.9275 100.981 30.3858C102.274 29.8441 103.766 29.5978 105.407 29.5978C107.048 29.5978 108.49 29.8933 109.833 30.435C111.126 30.9767 112.269 31.7647 113.164 32.7497C114.06 33.7346 114.805 34.9166 115.303 36.3447C115.8 37.7729 116.098 39.3488 116.098 41.1218C116.049 42.8947 115.8 44.5691 115.303 45.9973ZM130.967 33.4884C130.918 33.6361 130.868 33.8331 130.818 33.9809C130.371 33.9809 129.873 34.0301 129.426 34.0793C128.73 34.1286 128.083 34.2271 127.437 34.3748C126.79 34.5226 126.193 34.6703 125.646 34.8181C125.05 34.9658 124.503 35.1628 124.105 35.409L123.607 35.6553V51.9562C123.458 52.0055 123.21 52.0055 122.961 52.0547C122.364 52.1532 121.768 52.2025 121.121 52.2025C120.524 52.2025 119.977 52.1532 119.53 52.0547C119.132 52.0055 118.834 51.8577 118.585 51.6607C118.336 51.4637 118.187 51.2175 118.038 50.8728C117.889 50.4788 117.839 49.9863 117.839 49.2969V34.7688C117.839 34.1778 117.938 33.6854 118.137 33.2914C118.336 32.8974 118.635 32.5034 118.983 32.1587C119.381 31.814 119.928 31.4692 120.524 31.1737C121.171 30.8782 121.867 30.5828 122.663 30.3365C123.409 30.0903 124.204 29.8933 125 29.7456C125.796 29.5978 126.641 29.5486 127.437 29.5486C128.68 29.5486 129.625 29.7948 130.321 30.2873C130.669 30.5335 131.166 31.026 131.166 32.4049C131.117 32.7989 131.067 33.1436 130.967 33.4884ZM138.427 51.907C138.228 51.9562 137.979 52.0055 137.73 52.0547C137.134 52.1532 136.537 52.2025 135.94 52.2025C135.343 52.2025 134.796 52.1532 134.349 52.0547C133.951 52.0055 133.653 51.8577 133.454 51.6607C133.205 51.4637 133.056 51.2175 132.907 50.8728C132.758 50.4788 132.708 49.9863 132.708 49.2969V30.435C132.907 30.3858 133.155 30.3365 133.404 30.2873C134.001 30.1888 134.598 30.1395 135.194 30.1395C135.791 30.1395 136.338 30.1888 136.786 30.2873C137.134 30.3365 137.482 30.4843 137.681 30.6813C137.929 30.8783 138.079 31.1245 138.228 31.4692C138.377 31.8632 138.427 32.3557 138.427 33.0451V51.907ZM137.929 25.1655C137.333 25.8057 136.587 26.1505 135.592 26.1505C134.598 26.1505 133.852 25.855 133.255 25.1655C132.658 24.5253 132.36 23.7373 132.36 22.7524C132.36 21.7674 132.658 20.9795 133.255 20.3393C133.852 19.699 134.598 19.3543 135.592 19.3543C136.587 19.3543 137.333 19.6498 137.929 20.3393C138.526 20.9795 138.824 21.7674 138.824 22.7524C138.824 23.7373 138.526 24.5253 137.929 25.1655Z" fill="white"/>
</g>
</g>
</g>
</svg>
