<svg xmlns="http://www.w3.org/2000/svg" width="36" height="36" viewBox="0 0 36 36" fill="none">
    <g clip-path="url(#clip0_1_2669)">
    <mask id="mask0_1_2669" style="mask-type:luminance" maskUnits="userSpaceOnUse" x="0" y="0" width="36" height="36">
    <path d="M35.5 0.5H0.5V35.5H35.5V0.5Z" fill="white"/>
    </mask>
    <g mask="url(#mask0_1_2669)">
    <mask id="mask1_1_2669" style="mask-type:luminance" maskUnits="userSpaceOnUse" x="0" y="0" width="36" height="36">
    <path d="M0.5 0.5H35.5V35.5H0.5V0.5Z" fill="white"/>
    </mask>
    <g mask="url(#mask1_1_2669)">
    <path d="M17.4584 4.97932L8.70841 8.47932C8.15471 8.7008 7.79169 9.237 7.79169 9.83333V18C7.79169 21.5394 9.62842 24.723 12.6299 27.5245C13.6494 28.4759 14.7363 29.3166 15.8238 30.0416L16.2899 30.3454C16.7279 30.6244 17.0787 30.8281 17.3137 30.9535C17.7426 31.1822 18.2574 31.1822 18.6863 30.9535L18.9589 30.8021C19.2679 30.6249 19.683 30.3703 20.1761 30.0416C21.2636 29.3166 22.3506 28.4759 23.37 27.5245C26.3716 24.723 28.2083 21.5394 28.2083 18V9.83333C28.2083 9.237 27.8453 8.7008 27.2916 8.47932L18.5416 4.97932C18.1939 4.84023 17.8061 4.84023 17.4584 4.97932ZM18 7.90399L25.2917 10.8207V18C25.2917 20.5857 23.8472 23.0895 21.3799 25.3922C20.4853 26.2272 19.5215 26.9725 18.5582 27.6147L18.1548 27.8779L18 27.975L17.8452 27.8779C17.7199 27.798 17.585 27.7102 17.4417 27.6147C16.4785 26.9725 15.5146 26.2272 14.62 25.3922L14.2746 25.0619C12.0186 22.8509 10.7083 20.4625 10.7083 18V10.8192L18 7.90399Z" fill="white"/>
    </g>
    </g>
    </g>
    <defs>
    <clipPath id="clip0_1_2669">
    <rect width="35" height="35" fill="white" transform="translate(0.5 0.5)"/>
    </clipPath>
    </defs>
</svg>